<svg width="84" height="74" viewBox="0 0 84 74" fill="none" xmlns="http://www.w3.org/2000/svg">
<path d="M41.5018 68.9769C58.3073 68.9769 72.0156 55.286 72.0156 38.4981C72.0156 21.7102 58.3073 8.02295 41.5018 8.02295C24.6964 8.02295 10.9844 21.7139 10.9844 38.4981C10.9844 55.2823 24.6927 68.9769 41.5018 68.9769Z" fill="#FB8500"/>
<path d="M41.5018 8.02295C24.6927 8.02295 10.9844 21.7139 10.9844 38.4981C10.9844 55.2823 24.6927 68.9769 41.5018 68.9769C58.311 68.9769 72.0156 55.286 72.0156 38.4981C72.0156 21.7102 58.3072 8.02295 41.5018 8.02295ZM41.5018 61.7653C28.6695 61.7653 18.205 51.314 18.205 38.498C18.205 25.6819 28.6695 15.2307 41.5018 15.2307C54.3342 15.2307 64.7987 25.6856 64.7987 38.498C64.7987 51.3103 54.3305 61.7653 41.5018 61.7653Z" fill="#FFB703"/>
<path d="M56.7882 33.438C56.7035 33.1774 56.4814 32.9851 56.2113 32.9384L46.6694 31.2943L42.1548 22.7385C42.027 22.4963 41.7757 22.3447 41.5018 22.3447C41.2279 22.3447 40.9766 22.4963 40.8488 22.7385L36.3341 31.2943L26.7922 32.9384C26.5221 32.985 26.3 33.1773 26.2153 33.438C26.1307 33.6986 26.1974 33.9847 26.3886 34.1811L33.1393 41.1138L31.758 50.6853C31.7188 50.9563 31.833 51.2269 32.0546 51.3878C32.1831 51.4812 32.3354 51.5289 32.4887 51.5289C32.5997 51.5289 32.7112 51.5039 32.8145 51.4531L41.5017 47.1803L50.1888 51.4531C50.4349 51.5739 50.7272 51.5488 50.9487 51.3877C51.1703 51.2267 51.2845 50.9562 51.2454 50.6851L49.8641 41.1137L56.6148 34.181C56.806 33.9846 56.8727 33.6985 56.788 33.4379L56.7882 33.438Z" fill="#FCD227"/>
<path d="M19.9412 16.9649L25.0419 22.0592C29.2621 17.8443 35.0859 15.2308 41.5018 15.2308V8.02295C33.0981 8.02295 25.4693 11.445 19.9412 16.9649Z" fill="#FCD227"/>
<path d="M63.0623 60.0313L57.9616 54.937C53.7409 59.1522 47.9164 61.7654 41.5017 61.7654V68.9769C49.9052 68.9769 57.5343 65.5535 63.0622 60.0314L63.0623 60.0313Z" fill="#FCD227"/>
<path d="M63.061 16.9666L57.9612 22.06C62.1818 26.2752 64.7988 32.092 64.7988 38.4982H72.0158C72.0158 30.1061 68.5887 22.4873 63.061 16.9666Z" fill="#FCD227"/>
<path d="M19.9396 60.033L25.0413 54.9377C20.8211 50.7229 18.2049 44.9061 18.2049 38.498H10.9844C10.9844 46.8919 14.4115 54.5117 19.9396 60.033Z" fill="#FCD227"/>
</svg>
