<svg width="20" height="20" viewBox="0 0 20 20" fill="none" xmlns="http://www.w3.org/2000/svg">
<path d="M13.333 6.66699C14.6591 6.66699 15.9309 7.19378 16.8685 8.13146C17.8062 9.06914 18.333 10.3409 18.333 11.667V17.5003H14.9997V11.667C14.9997 11.225 14.8241 10.801 14.5115 10.4885C14.199 10.1759 13.775 10.0003 13.333 10.0003C12.891 10.0003 12.4671 10.1759 12.1545 10.4885C11.8419 10.801 11.6663 11.225 11.6663 11.667V17.5003H8.33301V11.667C8.33301 10.3409 8.85979 9.06914 9.79747 8.13146C10.7352 7.19378 12.0069 6.66699 13.333 6.66699Z" stroke="#4A5565" stroke-width="1.66667" stroke-linecap="round" stroke-linejoin="round"/>
<path d="M5.00033 7.5H1.66699V17.5H5.00033V7.5Z" stroke="#4A5565" stroke-width="1.66667" stroke-linecap="round" stroke-linejoin="round"/>
<path d="M3.33366 5.00033C4.25413 5.00033 5.00033 4.25413 5.00033 3.33366C5.00033 2.41318 4.25413 1.66699 3.33366 1.66699C2.41318 1.66699 1.66699 2.41318 1.66699 3.33366C1.66699 4.25413 2.41318 5.00033 3.33366 5.00033Z" stroke="#4A5565" stroke-width="1.66667" stroke-linecap="round" stroke-linejoin="round"/>
</svg>
