<svg width="192" height="40" viewBox="0 0 192 40" fill="none" xmlns="http://www.w3.org/2000/svg">
<path d="M45.1084 26.2833V2.75384H51.5376L58.8569 11.2009C59.0621 11.429 59.3357 11.7596 59.6777 12.1928C60.0197 12.626 60.3673 13.0645 60.7205 13.5083C61.0713 13.9532 61.339 14.3125 61.5238 14.5861L61.6992 14.5177C61.6764 13.8792 61.665 13.2464 61.665 12.619V2.75384H68.5396V26.2833H62.1438L53.8975 16.882C53.5099 16.4266 53.1793 16.0106 52.9057 15.6341C52.632 15.2576 52.3689 14.8986 52.1164 14.5572L51.9454 14.6256C51.9682 15.0588 51.9796 15.492 51.9796 15.9253V26.2833H45.1084Z" fill="#0F1990"/>
<path d="M80.2911 26.6933C76.3692 26.6933 73.4336 25.6673 71.4844 23.6151C69.5352 21.563 68.5605 18.5307 68.5605 14.5182C68.5605 11.8287 69.0622 9.58279 70.0655 7.7803C71.0687 5.97781 72.528 4.62141 74.4433 3.7111C76.3575 2.79904 78.6716 2.343 81.3856 2.343C82.9479 2.33311 84.5051 2.5226 86.0195 2.9069C87.3817 3.24566 88.6769 3.81228 89.8502 4.58282C90.9234 5.2895 91.8093 6.24583 92.432 7.36987C93.0477 8.48715 93.3555 9.78684 93.3555 11.2689H86.1397C86.1452 10.7888 86.021 10.3162 85.7801 9.90085C85.5362 9.48564 85.2035 9.12955 84.8058 8.85812C84.3727 8.56272 83.8926 8.34298 83.3859 8.20827C82.8344 8.05781 82.265 7.98288 81.6934 7.98552C80.8921 7.97189 80.0943 8.09345 79.3334 8.34508C78.6891 8.55918 78.1077 8.92912 77.6408 9.42202C77.1878 9.91471 76.8439 10.4974 76.6314 11.1321C76.3913 11.8718 76.2757 12.6462 76.2894 13.4237V15.6161C76.2894 16.7562 76.4891 17.7308 76.8884 18.54C77.2771 19.3396 77.9126 19.9929 78.7011 20.4036C79.5097 20.8368 80.5071 21.0534 81.6934 21.0534C82.4437 21.0614 83.1898 20.9401 83.899 20.6948C84.5199 20.4893 85.0789 20.1303 85.524 19.6512C85.9225 19.2246 86.1422 18.6615 86.1379 18.0778V17.934H80.8024V13.1501H93.3537V26.2829H89.4547L88.7022 23.9571C87.9919 24.5522 87.2111 25.0576 86.3773 25.462C85.4963 25.8849 84.5655 26.1951 83.6069 26.3855C82.5148 26.5991 81.4039 26.7022 80.2911 26.6933Z" fill="#0F1990"/>
<path d="M93.3923 26.2829V2.75339H103.926L106.081 11.0295C106.17 11.3259 106.302 11.815 106.478 12.4967C106.653 13.1784 106.836 13.9194 107.025 14.7198C107.218 15.5179 107.393 16.2586 107.551 16.9421H107.825C107.942 16.4411 108.084 15.8427 108.252 15.1469C108.42 14.4512 108.595 13.7388 108.778 13.0097C108.961 12.2801 109.12 11.6188 109.257 11.026L111.412 2.74989H121.569V26.2829H114.352V17.8007C114.352 16.8892 114.358 15.9488 114.37 14.9794C114.381 14.0101 114.393 13.0924 114.404 12.2266C114.415 11.3601 114.421 10.6419 114.421 10.0718H114.147C114.079 10.5279 113.982 11.0637 113.857 11.6793C113.732 12.295 113.6 12.9048 113.463 13.5087C113.327 14.1133 113.19 14.6435 113.053 15.0996L110.009 26.2829H104.373L101.296 15.0996C101.179 14.6435 101.048 14.1133 100.902 13.5087C100.756 12.9042 100.625 12.2944 100.509 11.6793C100.392 11.0637 100.29 10.5393 100.201 10.106H99.9276C99.9498 10.6761 99.9726 11.3943 99.996 12.2608C100.019 13.1272 100.036 14.0393 100.047 14.997C100.058 15.954 100.064 16.8895 100.064 17.8033V26.2829H93.3923Z" fill="#0F1990"/>
<path d="M49.1965 37.5754C48.3371 37.5754 47.6024 37.424 46.9926 37.1211C46.3802 36.8181 45.8864 36.3194 45.5895 35.7039C45.2662 35.0608 45.1045 34.2324 45.1045 33.2186C45.1045 31.7371 45.4643 30.6405 46.1841 29.929C46.9038 29.2175 47.9065 28.8614 49.1921 28.8608C49.8376 28.8512 50.4784 28.9723 51.0759 29.2169C51.6161 29.4382 52.0809 29.811 52.4141 30.2903C52.7445 30.7692 52.9099 31.3769 52.9105 32.1136H51.2828C51.2947 31.7499 51.2035 31.3902 51.0197 31.0761C50.8446 30.7944 50.5906 30.5703 50.2892 30.4315C49.9541 30.279 49.5891 30.2035 49.2211 30.2105C48.6639 30.2105 48.2014 30.319 47.8337 30.5359C47.4617 30.7576 47.1744 31.0971 47.0172 31.5006C46.8418 31.9256 46.7541 32.4536 46.7541 33.0844V33.3545C46.7541 33.9918 46.8418 34.5235 47.0172 34.9497C47.1726 35.3506 47.4579 35.6878 47.8275 35.9074C48.1918 36.1196 48.6563 36.226 49.2211 36.2266C49.6042 36.2348 49.9847 36.1615 50.3375 36.0118C50.6442 35.8793 50.9033 35.6567 51.0803 35.3733C51.2644 35.0594 51.3557 34.6996 51.3434 34.3358H52.914C52.914 35.0725 52.7503 35.6803 52.4229 36.1591C52.0945 36.6387 51.6312 37.0102 51.0917 37.2264C50.4893 37.4672 49.8451 37.5858 49.1965 37.5754Z" fill="#0F1990"/>
<path d="M57.6316 37.5749C56.7546 37.5749 55.9974 37.4173 55.3602 37.1022C54.728 36.7933 54.2134 36.2873 53.8939 35.6604C53.553 35.0144 53.3826 34.2003 53.3826 33.218C53.3826 32.2358 53.5524 31.4193 53.8921 30.7686C54.2131 30.1444 54.7275 29.6407 55.3584 29.333C55.9969 29.0185 56.754 28.8609 57.6298 28.8603C58.5056 28.8597 59.2657 29.0173 59.91 29.333C60.5383 29.6425 61.0505 30.1458 61.371 30.7686C61.7101 31.4117 61.8797 32.2282 61.8797 33.218C61.8797 34.2079 61.7101 35.022 61.371 35.6604C61.0521 36.2859 60.5396 36.7916 59.91 37.1022C59.275 37.4179 58.5156 37.5755 57.6316 37.5749ZM57.6316 36.2252C58.0138 36.2325 58.3942 36.1701 58.7541 36.041C59.0657 35.9261 59.3455 35.7389 59.5706 35.4947C59.8013 35.2359 59.9731 34.9301 60.074 34.5984C60.1957 34.1989 60.2549 33.783 60.2493 33.3654V33.0953C60.2551 32.6713 60.1959 32.249 60.074 31.8429C59.9739 31.509 59.8021 31.2011 59.5706 30.9405C59.3455 30.6963 59.0657 30.5091 58.7541 30.3942C58.0256 30.1486 57.2367 30.1486 56.5081 30.3942C56.1966 30.5091 55.9167 30.6963 55.6917 30.9405C55.4605 31.2003 55.2906 31.5087 55.1944 31.8429C55.0775 32.2499 55.0217 32.6719 55.0287 33.0953V33.3654C55.0219 33.7824 55.0778 34.198 55.1944 34.5984C55.2915 34.9301 55.4614 35.236 55.6917 35.4938C55.9167 35.738 56.1966 35.9252 56.5081 36.0402C56.8683 36.1694 57.249 36.2321 57.6316 36.2252Z" fill="#0F1990"/>
<path d="M62.3486 37.4399V29.0165H63.8702L67.4658 33.9872C67.5186 34.052 67.5677 34.1197 67.6132 34.1898C67.6702 34.2775 67.7237 34.3599 67.7728 34.4415C67.8119 34.5036 67.8448 34.5694 67.871 34.6379H67.9324V29.0165H69.4689V37.4355H67.9587L64.349 32.4367C64.2841 32.3385 64.2078 32.2175 64.1219 32.0745C64.0359 31.9316 63.9772 31.8307 63.9465 31.7737H63.886V37.4443L62.3486 37.4399Z" fill="#0F1990"/>
<path d="M69.9365 37.4399V29.0165H75.9877V30.3784H71.5326V32.6375H75.5457V33.9995H71.5326V37.4364L69.9365 37.4399Z" fill="#0F1990"/>
<path d="M76.457 37.4399V29.0165H83.0239V30.3784H78.0523V32.4534H82.4837V33.8153H78.0523V36.0744H83.0975V37.4364L76.457 37.4399Z" fill="#0F1990"/>
<path d="M83.5654 37.4399V29.0165H87.9968C88.6189 29.0165 89.1343 29.1229 89.5429 29.3357C89.9378 29.5338 90.26 29.8514 90.4638 30.2434C90.6769 30.6742 90.7822 31.1503 90.7707 31.6308C90.7807 32.14 90.6535 32.6425 90.4024 33.0857C90.1532 33.51 89.7745 33.8432 89.3219 34.0363L91.0654 37.4364H89.3219L87.7758 34.3064H85.1615V37.4364L83.5654 37.4399ZM85.1615 32.9725H87.874C88.2833 32.9725 88.5984 32.8539 88.8194 32.6165C89.0404 32.3791 89.1506 32.0517 89.1501 31.6343C89.1576 31.3986 89.1073 31.1646 89.0036 30.9529C88.9073 30.7708 88.7573 30.6229 88.5739 30.5293C88.3553 30.4243 88.1146 30.3737 87.8723 30.3819H85.1598L85.1615 32.9725Z" fill="#0F1990"/>
<path d="M91.5342 37.4399V29.0165H98.1002V30.3784H93.1294V32.4534H97.5608V33.8153H93.1294V36.0744H98.1747V37.4364L91.5342 37.4399Z" fill="#0F1990"/>
<path d="M98.6436 37.4399V29.0165H100.166L103.762 33.9872C103.813 34.0524 103.861 34.1203 103.905 34.1907C103.963 34.2784 104.016 34.3608 104.065 34.4424C104.105 34.5042 104.137 34.5701 104.163 34.6388H104.225V29.0165H105.759V37.4355H104.249L100.64 32.4367C100.576 32.3385 100.499 32.2175 100.413 32.0745C100.327 31.9316 100.269 31.8307 100.238 31.7737H100.177V37.4443L98.6436 37.4399Z" fill="#0F1990"/>
<path d="M110.319 37.5754C109.459 37.5754 108.725 37.424 108.116 37.1212C107.503 36.8181 107.009 36.3194 106.713 35.704C106.389 35.0608 106.228 34.2324 106.228 33.2186C106.228 31.7371 106.588 30.6405 107.308 29.929C108.028 29.2175 109.031 28.8614 110.315 28.8608C110.961 28.8511 111.601 28.9722 112.199 29.2169C112.739 29.4382 113.204 29.811 113.537 30.2903C113.869 30.7692 114.034 31.3769 114.034 32.1136H112.402C112.414 31.7498 112.323 31.39 112.138 31.0761C111.964 30.7945 111.71 30.5703 111.409 30.4315C111.074 30.2791 110.709 30.2036 110.341 30.2105C109.783 30.2105 109.321 30.319 108.953 30.5359C108.581 30.7574 108.294 31.097 108.138 31.5006C107.962 31.9256 107.875 32.4536 107.875 33.0844V33.3545C107.875 33.9918 107.962 34.5235 108.138 34.9497C108.292 35.3507 108.578 35.688 108.947 35.9074C109.311 36.1196 109.776 36.226 110.341 36.2266C110.724 36.2348 111.105 36.1615 111.458 36.0118C111.764 35.8795 112.023 35.6568 112.2 35.3733C112.384 35.0594 112.475 34.6996 112.463 34.3359H114.034C114.034 35.0725 113.871 35.6803 113.543 36.1591C113.215 36.6388 112.751 37.0102 112.211 37.2264C111.61 37.4669 110.966 37.5855 110.319 37.5754Z" fill="#0F1990"/>
<path d="M114.503 37.4399V29.0165H121.069V30.3784H116.098V32.4534H120.53V33.8153H116.098V36.0744H121.139V37.4364L114.503 37.4399Z" fill="#0F1990"/>
<path d="M25.6626 7.62939e-05V8.79944L20.1655 14.2965L15.7659 9.89685L14.6689 8.79995V0.000578724L20.1655 5.49717L25.6626 7.62939e-05Z" fill="#0F1990"/>
<path d="M25.5337 31.2012V40.0006L20.0366 34.5035L14.54 40.0001V31.2007L15.6369 30.1038L20.0366 25.7041L24.4363 30.1038L25.5337 31.2012Z" fill="#0F1990"/>
<path d="M9.89677 15.5925L14.2965 19.9922L9.89677 24.3919L8.79937 25.4893H0L5.49709 19.9922L0 14.4951H8.79937L9.89677 15.5925Z" fill="#0F1990"/>
<path d="M34.5347 19.9922L40.0318 25.4893H31.2324L30.135 24.3919L25.7354 19.9922L30.135 15.593L31.2324 14.4951H40.0318L34.5347 19.9922Z" fill="#0F1990"/>
<path d="M39.6858 8.11955L33.4628 14.342H25.6895V6.56769L31.9114 0.345703V8.11955H39.6858Z" fill="#79DE78"/>
<path d="M14.3652 14.3732H6.59186L0.369873 8.15117H8.14322V0.376827L14.3652 6.59882V14.3732Z" fill="#79DE78"/>
<path d="M39.6492 31.8323H31.8753V39.6067L25.6533 33.3847V25.6104H33.4272L39.6492 31.8323Z" fill="#79DE78"/>
<path d="M14.3288 25.58V33.3539L8.10685 39.5759V31.802H0.333008L6.555 25.58H14.3288Z" fill="#79DE78"/>
<path d="M139.931 38.1172C136.495 38.1172 133.609 37.6191 131.273 36.6228C128.971 35.5921 127.219 34.1836 126.017 32.3971C124.849 30.5763 124.265 28.4635 124.265 26.0586H133.334C133.334 26.9518 133.54 27.7764 133.953 28.5322C134.365 29.288 134.983 29.8892 135.808 30.3358C136.632 30.7824 137.646 31.0057 138.848 31.0057C140.051 31.0057 141.047 30.7824 141.837 30.3358C142.662 29.8548 143.28 29.2193 143.692 28.4291C144.105 27.6389 144.311 26.7457 144.311 25.7494C144.311 24.7188 144.105 23.8084 143.692 23.0182C143.28 22.228 142.662 21.6096 141.837 21.163C141.047 20.6821 140.068 20.4416 138.9 20.4416C137.766 20.4416 136.873 20.6134 136.22 20.9569C135.567 21.3005 135.069 21.6784 134.726 22.0906C134.417 22.4685 134.159 22.7777 133.953 23.0182L125.811 21.8845L127.305 2.0445H151.835V10.805H134.983L134.571 16.1644C134.571 16.1644 134.863 15.9754 135.447 15.5975C136.066 15.2196 136.942 14.8417 138.075 14.4638C139.209 14.0516 140.566 13.8454 142.146 13.8454C144.654 13.8454 146.819 14.3264 148.639 15.2883C150.495 16.2503 151.92 17.6417 152.917 19.4625C153.947 21.2489 154.463 23.3961 154.463 25.904C154.463 28.1371 153.861 30.1812 152.659 32.0364C151.491 33.8915 149.825 35.3688 147.66 36.4682C145.496 37.5675 142.919 38.1172 139.931 38.1172Z" fill="#79DE78"/>
<path d="M156.731 34.2504C155.359 34.2504 154.173 33.7513 153.175 32.7532C152.239 31.7551 151.771 30.5386 151.771 29.1038C151.771 27.6066 152.239 26.3901 153.175 25.4543C154.173 24.5186 155.359 24.0507 156.731 24.0507C158.103 24.0507 159.257 24.5186 160.193 25.4543C161.191 26.3901 161.69 27.6066 161.69 29.1038C161.69 30.5386 161.191 31.7551 160.193 32.7532C159.257 33.7513 158.103 34.2504 156.731 34.2504Z" fill="#0F1990"/>
<path d="M173.981 37.961C171.061 37.961 168.622 37.5316 166.664 36.6727C164.706 35.7795 163.16 34.5255 162.026 32.9109C160.892 31.2962 160.085 29.3723 159.604 27.1392C159.123 24.8718 158.882 22.3639 158.882 19.6155C158.882 16.8671 159.123 14.3764 159.604 12.1433C160.085 9.87585 160.892 7.9348 162.026 6.32011C163.16 4.70543 164.706 3.46865 166.664 2.60978C168.622 1.71655 171.061 1.26994 173.981 1.26994C176.936 1.26994 179.375 1.71655 181.299 2.60978C183.257 3.46865 184.786 4.70543 185.885 6.32011C187.019 7.9348 187.826 9.87585 188.307 12.1433C188.788 14.3764 189.029 16.8671 189.029 19.6155C189.029 22.3639 188.788 24.8718 188.307 27.1392C187.826 29.3723 187.019 31.2962 185.885 32.9109C184.786 34.5255 183.257 35.7795 181.299 36.6727C179.375 37.5316 176.936 37.961 173.981 37.961ZM173.981 31.0042C175.184 31.0042 176.146 30.695 176.867 30.0766C177.589 29.4582 178.104 28.4962 178.413 27.1908C178.722 25.8853 178.877 24.2019 178.877 22.1406V17.0389C178.877 14.9432 178.722 13.2598 178.413 11.9887C178.104 10.6832 177.589 9.73843 176.867 9.1544C176.146 8.53601 175.184 8.22682 173.981 8.22682C172.779 8.22682 171.817 8.53601 171.096 9.1544C170.374 9.73843 169.842 10.6832 169.498 11.9887C169.189 13.2598 169.034 14.9432 169.034 17.0389V22.1406C169.034 24.2019 169.189 25.8853 169.498 27.1908C169.842 28.4962 170.374 29.4582 171.096 30.0766C171.817 30.695 172.779 31.0042 173.981 31.0042Z" fill="#BFF4BF"/>
</svg>
