<svg width="20" height="20" viewBox="0 0 20 20" fill="none" xmlns="http://www.w3.org/2000/svg">
<path d="M3.74992 13.75C2.49992 14.8 2.08325 17.9167 2.08325 17.9167C2.08325 17.9167 5.19992 17.5 6.24992 16.25C6.84159 15.55 6.83325 14.475 6.17492 13.825C5.85101 13.5159 5.42433 13.3372 4.97677 13.3234C4.52922 13.3095 4.09232 13.4615 3.74992 13.75Z" stroke="#00A63E" stroke-width="1.66667" stroke-linecap="round" stroke-linejoin="round"/>
<path d="M10 12.5L7.5 10C7.94345 8.84957 8.50184 7.74676 9.16667 6.70838C10.1377 5.15587 11.4897 3.87758 13.0942 2.99512C14.6986 2.11266 16.5022 1.65535 18.3333 1.66671C18.3333 3.93338 17.6833 7.91671 13.3333 10.8334C12.2807 11.499 11.164 12.0573 10 12.5Z" stroke="#00A63E" stroke-width="1.66667" stroke-linecap="round" stroke-linejoin="round"/>
<path d="M7.49992 10.0001H3.33325C3.33325 10.0001 3.79159 7.47506 4.99992 6.66672C6.34992 5.76672 9.16659 6.66672 9.16659 6.66672" stroke="#00A63E" stroke-width="1.66667" stroke-linecap="round" stroke-linejoin="round"/>
<path d="M10 12.5V16.6667C10 16.6667 12.525 16.2084 13.3333 15C14.2333 13.65 13.3333 10.8334 13.3333 10.8334" stroke="#00A63E" stroke-width="1.66667" stroke-linecap="round" stroke-linejoin="round"/>
</svg>
