<svg width="32" height="32" viewBox="0 0 32 32" fill="none" xmlns="http://www.w3.org/2000/svg">
<path d="M21.3334 26.6667V5.33341C21.3334 4.62617 21.0525 3.94789 20.5524 3.4478C20.0523 2.9477 19.374 2.66675 18.6667 2.66675H13.3334C12.6262 2.66675 11.9479 2.9477 11.4478 3.4478C10.9477 3.94789 10.6667 4.62617 10.6667 5.33341V26.6667" stroke="#00A63E" stroke-width="2.66667" stroke-linecap="round" stroke-linejoin="round"/>
<path d="M26.6667 8H5.33341C3.86066 8 2.66675 9.19391 2.66675 10.6667V24C2.66675 25.4728 3.86066 26.6667 5.33341 26.6667H26.6667C28.1395 26.6667 29.3334 25.4728 29.3334 24V10.6667C29.3334 9.19391 28.1395 8 26.6667 8Z" stroke="#00A63E" stroke-width="2.66667" stroke-linecap="round" stroke-linejoin="round"/>
</svg>
