<svg width="32" height="32" viewBox="0 0 32 32" fill="none" xmlns="http://www.w3.org/2000/svg">
<path d="M21.3334 28V25.3333C21.3334 23.9188 20.7715 22.5623 19.7713 21.5621C18.7711 20.5619 17.4146 20 16.0001 20H8.00008C6.58559 20 5.22904 20.5619 4.22885 21.5621C3.22865 22.5623 2.66675 23.9188 2.66675 25.3333V28" stroke="#00A63E" stroke-width="2.66667" stroke-linecap="round" stroke-linejoin="round"/>
<path d="M21.3333 4.17065C22.4769 4.46715 23.4898 5.13501 24.2128 6.0694C24.9359 7.0038 25.3282 8.15184 25.3282 9.33332C25.3282 10.5148 24.9359 11.6628 24.2128 12.5972C23.4898 13.5316 22.4769 14.1995 21.3333 14.496" stroke="#00A63E" stroke-width="2.66667" stroke-linecap="round" stroke-linejoin="round"/>
<path d="M29.3333 28V25.3333C29.3324 24.1516 28.9391 23.0037 28.2151 22.0698C27.4911 21.1358 26.4774 20.4688 25.3333 20.1733" stroke="#00A63E" stroke-width="2.66667" stroke-linecap="round" stroke-linejoin="round"/>
<path d="M12.0001 14.6667C14.9456 14.6667 17.3334 12.2789 17.3334 9.33333C17.3334 6.38781 14.9456 4 12.0001 4C9.05456 4 6.66675 6.38781 6.66675 9.33333C6.66675 12.2789 9.05456 14.6667 12.0001 14.6667Z" stroke="#00A63E" stroke-width="2.66667" stroke-linecap="round" stroke-linejoin="round"/>
</svg>
