<svg width="63" height="63" viewBox="0 0 63 63" fill="none" xmlns="http://www.w3.org/2000/svg">
<path d="M31.5018 61.9769C48.3073 61.9769 62.0156 48.286 62.0156 31.4981C62.0156 14.7102 48.3073 1.02295 31.5018 1.02295C14.6964 1.02295 0.984375 14.7139 0.984375 31.4981C0.984375 48.2823 14.6927 61.9769 31.5018 61.9769Z" fill="#FB8500"/>
<path d="M31.5018 1.02295C14.6927 1.02295 0.984375 14.7139 0.984375 31.4981C0.984375 48.2823 14.6927 61.9769 31.5018 61.9769C48.311 61.9769 62.0156 48.286 62.0156 31.4981C62.0156 14.7102 48.3072 1.02295 31.5018 1.02295ZM31.5018 54.7653C18.6695 54.7653 8.20501 44.314 8.20501 31.498C8.20501 18.6819 18.6695 8.23067 31.5018 8.23067C44.3342 8.23067 54.7987 18.6856 54.7987 31.498C54.7987 44.3103 44.3305 54.7653 31.5018 54.7653Z" fill="#FFB703"/>
<path d="M46.7882 26.438C46.7035 26.1774 46.4814 25.9851 46.2113 25.9384L36.6694 24.2943L32.1548 15.7385C32.027 15.4963 31.7757 15.3447 31.5018 15.3447C31.2279 15.3447 30.9766 15.4963 30.8488 15.7385L26.3341 24.2943L16.7922 25.9384C16.5221 25.985 16.3 26.1773 16.2153 26.438C16.1307 26.6986 16.1974 26.9847 16.3886 27.1811L23.1393 34.1138L21.758 43.6853C21.7188 43.9563 21.833 44.2269 22.0546 44.3878C22.1831 44.4812 22.3354 44.5289 22.4887 44.5289C22.5997 44.5289 22.7112 44.5039 22.8145 44.4531L31.5017 40.1803L40.1888 44.4531C40.4349 44.5739 40.7272 44.5488 40.9487 44.3877C41.1703 44.2267 41.2845 43.9562 41.2454 43.6851L39.8641 34.1137L46.6148 27.181C46.806 26.9846 46.8727 26.6985 46.788 26.4379L46.7882 26.438Z" fill="#FCD227"/>
<path d="M9.94116 9.96489L15.0419 15.0592C19.2621 10.8443 25.0859 8.23079 31.5018 8.23079V1.02295C23.0981 1.02295 15.4693 4.44501 9.94116 9.96489Z" fill="#FCD227"/>
<path d="M53.0623 53.0313L47.9616 47.937C43.7409 52.1522 37.9164 54.7654 31.5017 54.7654V61.9769C39.9052 61.9769 47.5343 58.5535 53.0622 53.0314L53.0623 53.0313Z" fill="#FCD227"/>
<path d="M53.0607 9.96655L47.9609 15.06C52.1816 19.2752 54.7985 25.092 54.7985 31.4982H62.0156C62.0156 23.1061 58.5885 15.4873 53.0607 9.96655Z" fill="#FCD227"/>
<path d="M9.9396 53.033L15.0413 47.9377C10.8211 43.7229 8.20489 37.9061 8.20489 31.498H0.984375C0.984375 39.8919 4.41148 47.5117 9.9396 53.033Z" fill="#FCD227"/>
</svg>
